# xmcd
#
# Track frame offsets:
#	150
#	47313
#	61225
#	111005
#	162527
#	198811
#	221306
#	241522
#	283546
#
# Disc length: 4187 seconds
#
# Revision: 0
# Processed by: cddbd v1.5.2PL0 Copyright (c) Steve Scherf et al.
# Submitted via: audiograbber 1.83.01
#
DISCID=6d105909
DTITLE=Grateful Dead - 92-03-09 Capital Centre, Landover MD
DYEAR=1900
DGENRE=
TTITLE0=Corrina
TTITLE1=Jam
TTITLE2=Dark Star
TTITLE3=Drums
TTITLE4=Space (including Shenandoah tease)
TTITLE5=Jam
TTITLE6=I Need A Miracle
TTITLE7=Morning Dew
TTITLE8=Satisfaction
EXTD=
EXTT0=
EXTT1=
EXTT2=
EXTT3=
EXTT4=
EXTT5=
EXTT6=
EXTT7=
EXTT8=
PLAYORDER=
